<?xml version="1.0" encoding="iso-8859-1"?>
<!-- Generator: Adobe Illustrator 19.0.0, SVG Export Plug-In . SVG Version: 6.00 Build 0)  -->
<svg xmlns="http://www.w3.org/2000/svg" xmlns:xlink="http://www.w3.org/1999/xlink" version="1.1" id="Capa_1" x="0px" y="0px" viewBox="0 0 512 512" style="enable-background:new 0 0 512 512;" xml:space="preserve" width="512px" height="512px">
<g>
	<g>
		<g>
			<path d="M510.567,264.067l-63.217-94.775c-4.725-7.154-12.683-11.425-21.283-11.425h-61.081l6.331-56.912     c0.8-7.208-1.533-14.454-6.383-19.879c-4.858-5.429-11.817-8.542-19.075-8.542H64.508c-13.108,0-24.05,9.804-25.458,22.767     l-2.133,18.946c-0.525,4.683,2.842,8.908,7.525,9.433c4.725,0.55,8.908-2.846,9.442-7.525l2.133-18.979     c0.467-4.321,4.117-7.575,8.492-7.575h281.35c2.45,0,4.708,1.017,6.358,2.858c1.642,1.838,2.408,4.188,2.133,6.612     l-30.375,273.083c-0.467,4.25-4.158,7.579-8.408,7.579h-0.042H161.363c-4.082-24.176-25.109-42.667-50.429-42.667     c-25.32,0-46.347,18.491-50.429,42.667H34.133c-2.45,0-4.708-1.012-6.358-2.854c-1.65-1.842-2.408-4.192-2.142-6.617     l13.058-117.588c0.517-4.683-2.858-8.904-7.542-9.421c-4.567-0.517-8.908,2.854-9.425,7.538L8.667,368.388     c-0.792,7.213,1.542,14.458,6.4,19.879c4.858,5.425,11.808,8.533,19.067,8.533h26.371c4.082,24.176,25.109,42.667,50.429,42.667     c25.32,0,46.347-18.491,50.429-42.667h154.162h0.042h43.604c4.082,24.176,25.109,42.667,50.429,42.667     s46.347-18.491,50.429-42.667H486.4c14.117,0,25.6-11.483,25.6-25.6V268.8C512,267.117,511.5,265.467,510.567,264.067z      M110.933,422.4c-18.825,0-34.133-15.312-34.133-34.133s15.308-34.133,34.133-34.133s34.133,15.313,34.133,34.133     S129.758,422.4,110.933,422.4z M409.6,422.4c-18.825,0-34.133-15.312-34.133-34.133s15.308-34.133,34.133-34.133     c18.825,0,34.133,15.313,34.133,34.133S428.425,422.4,409.6,422.4z M494.933,371.2c0,4.704-3.825,8.533-8.533,8.533h-26.371     c-4.082-24.176-25.109-42.667-50.429-42.667c-25.32,0-46.347,18.491-50.429,42.667h-19.602c0.642-1.824,1.155-3.712,1.373-5.712     l22.146-199.088h12.379v102.4c0,4.246,3.125,7.846,7.325,8.446l112.142,16.02V371.2z M494.933,284.562l-102.4-14.629v-95h33.533     c2.85,0,5.492,1.408,7.067,3.796l61.8,92.654V284.562z" fill="#2F2F2F"/>
			<path d="M8.533,149.333H153.6c4.717,0,8.533-3.821,8.533-8.533c0-4.713-3.817-8.533-8.533-8.533H8.533     C3.817,132.267,0,136.087,0,140.8C0,145.513,3.817,149.333,8.533,149.333z" fill="#2F2F2F"/>
			<path d="M8.533,192H76.8c4.717,0,8.533-3.821,8.533-8.533s-3.817-8.533-8.533-8.533H8.533c-4.717,0-8.533,3.821-8.533,8.533     S3.817,192,8.533,192z" fill="#2F2F2F"/>
			<path d="M128,234.667c4.717,0,8.533-3.821,8.533-8.533S132.717,217.6,128,217.6H8.533C3.817,217.6,0,221.421,0,226.133     s3.817,8.533,8.533,8.533H128z" fill="#2F2F2F"/>
		</g>
	</g>
</g>
<g>
</g>
<g>
</g>
<g>
</g>
<g>
</g>
<g>
</g>
<g>
</g>
<g>
</g>
<g>
</g>
<g>
</g>
<g>
</g>
<g>
</g>
<g>
</g>
<g>
</g>
<g>
</g>
<g>
</g>
</svg>
